<?xml version="1.0" encoding="utf-8"?>
<!-- Generator: Adobe Illustrator 16.0.4, SVG Export Plug-In . SVG Version: 6.00 Build 0)  -->
<!DOCTYPE svg PUBLIC "-//W3C//DTD SVG 1.1//EN" "http://www.w3.org/Graphics/SVG/1.1/DTD/svg11.dtd">
<svg version="1.1" id="AdamCG_v2_1_" xmlns="http://www.w3.org/2000/svg" xmlns:xlink="http://www.w3.org/1999/xlink" x="0px"
	 y="0px" width="912.667px" height="284.985px" viewBox="0 0 912.667 284.985" enable-background="new 0 0 912.667 284.985"
	 xml:space="preserve">
<g id="INTERACTIVE_SOLUTIONS">
	<g>
		<path fill="#999999" d="M6.711,270.098v-55.807h8.725v55.807H6.711z"/>
		<path fill="#999999" d="M35.744,234.223v35.875h-8.725v-58.438l35.048,38.433v-35.801h8.8v58.364L35.744,234.223z"/>
		<path fill="#999999" d="M118.403,222.113h-15.343v47.984h-8.8v-47.984H78.918v-7.822h39.485V222.113z"/>
		<path fill="#999999" d="M135.179,237.005h20.382v7.897h-20.382V262.2h24.744v7.897h-24.819h-8.649v-55.807h8.649h24.819v7.822
			h-24.744V237.005z"/>
		<path fill="#999999" d="M209.263,270.098h-9.853l-14.064-18.878h-6.393v18.878h-8.725v-55.807h7.371h9.176
			c7.371,0,11.658,3.009,13.914,5.566c2.933,3.233,4.513,7.746,4.513,12.936c0,5.114-1.58,9.627-4.513,12.861
			c-1.354,1.504-3.459,3.234-6.468,4.287L209.263,270.098z M186.775,243.397c3.61,0,6.318-1.053,8.048-3.008
			c2.106-2.257,2.482-5.415,2.482-7.597c0-2.256-0.376-5.415-2.482-7.671c-1.73-1.956-4.438-2.934-8.048-2.934h-7.822v21.209
			H186.775z"/>
		<path fill="#999999" d="M247.548,258.14h-19.855l-4.738,11.958h-9.627l24.293-58.363l24.218,58.363h-9.552L247.548,258.14z
			 M244.389,250.317l-6.769-16.998l-6.769,16.998H244.389z"/>
		<path fill="#999999" d="M306.817,265.51c-1.429,0.902-2.933,1.729-4.512,2.407c-3.46,1.429-7.145,2.181-10.906,2.181
			c-3.76,0-7.446-0.752-10.83-2.181c-3.385-1.43-6.318-3.46-8.875-6.018c-2.557-2.557-4.588-5.49-6.017-8.875
			c-1.429-3.384-2.181-7.069-2.181-10.83s0.752-7.445,2.181-10.905c1.429-3.31,3.46-6.317,6.017-8.875
			c2.557-2.557,5.49-4.588,8.875-5.941c3.384-1.504,7.07-2.182,10.83-2.182c3.761,0,7.446,0.678,10.906,2.182
			c0.376,0.15,0.827,0.376,1.203,0.526v10.304c-3.384-2.782-7.596-4.287-12.109-4.287c-5.114,0-9.928,1.956-13.538,5.641
			c-3.61,3.61-5.641,8.424-5.641,13.538s2.031,9.928,5.641,13.538c3.61,3.61,8.424,5.641,13.538,5.641s9.928-2.03,13.538-5.641
			c0.677-0.677,1.278-1.354,1.88-2.105V265.51z"/>
		<path fill="#999999" d="M351.496,222.113h-15.343v47.984h-8.8v-47.984H312.01v-7.822h39.485V222.113z"/>
		<path fill="#999999" d="M359.546,270.098v-55.807h8.725v55.807H359.546z"/>
		<path fill="#999999" d="M401.214,251.069l14.666-36.778h9.477l-23.917,58.289l-25.571-58.289h9.627L401.214,251.069z"/>
		<path fill="#999999" d="M441.831,237.005h20.382v7.897h-20.382V262.2h24.745v7.897h-24.82h-8.649v-55.807h8.649h24.82v7.822
			h-24.745V237.005z"/>
		<path fill="#999999" d="M529.001,258.892c-1.579,5.415-6.468,9.702-12.56,10.905c-1.128,0.226-2.257,0.301-3.385,0.301
			c-2.256,0-4.513-0.376-6.618-1.203c-3.535-1.43-6.619-3.761-9.251-7.146l6.919-5.415c1.58,2.106,3.46,3.61,5.49,4.362
			c1.655,0.677,3.46,0.827,5.114,0.451c2.858-0.526,5.189-2.406,5.867-4.663c0.752-2.557-0.979-4.813-2.558-6.317
			c-2.481-2.332-6.543-6.317-6.844-6.619l-6.845-6.468c-2.105-2.03-3.535-4.287-4.287-6.693c-0.752-2.332-0.827-4.813-0.15-7.07
			c0.677-2.406,2.106-4.513,4.137-6.242c1.881-1.579,4.212-2.708,6.694-3.159c2.707-0.602,5.565-0.376,8.272,0.602
			c2.858,1.129,5.415,3.009,7.597,5.642l-6.845,5.49c-2.857-3.46-5.791-3.46-7.37-3.159c-1.956,0.376-3.61,1.654-4.062,3.234
			c-0.301,1.053-0.226,2.782,2.105,5.039l9.326,8.95c1.354,1.354,3.009,2.933,4.212,4.062c2.407,2.181,4.062,4.662,4.889,7.295
			C529.678,253.627,529.754,256.334,529.001,258.892z"/>
		<path fill="#999999" d="M552.922,267.917c-3.384-1.43-6.317-3.46-8.874-6.018c-2.558-2.557-4.588-5.49-6.018-8.875
			c-1.429-3.384-2.181-7.069-2.181-10.83s0.752-7.445,2.181-10.905c1.43-3.31,3.46-6.242,6.018-8.875
			c2.557-2.557,5.49-4.513,8.874-5.941c3.385-1.429,7.07-2.182,10.831-2.182c3.76,0,7.445,0.753,10.905,2.182
			c3.31,1.429,6.242,3.385,8.875,5.941c2.557,2.633,4.513,5.565,5.941,8.875c1.429,3.46,2.181,7.145,2.181,10.905
			s-0.752,7.446-2.181,10.83c-1.429,3.385-3.385,6.318-5.941,8.875c-2.633,2.558-5.565,4.588-8.875,6.018
			c-3.46,1.429-7.146,2.181-10.905,2.181C559.993,270.098,556.307,269.346,552.922,267.917z M550.215,228.656
			c-3.61,3.61-5.641,8.424-5.641,13.538s2.03,9.928,5.641,13.538s8.424,5.641,13.538,5.641s9.928-2.03,13.537-5.641
			c3.61-3.61,5.642-8.424,5.642-13.538s-2.031-9.928-5.642-13.538c-3.609-3.609-8.423-5.641-13.537-5.641
			S553.826,225.047,550.215,228.656z"/>
		<path fill="#999999" d="M633.553,270.098h-23.391h-8.649v-55.807h8.725V262.2h23.315V270.098z"/>
		<path fill="#999999" d="M646.266,265.66c-2.182-1.654-3.836-3.686-4.965-6.017c-1.278-2.558-1.88-5.415-1.88-8.499v-36.854h8.725
			v36.854c0,3.31,1.203,5.866,3.46,7.597c2.105,1.654,5.189,2.632,8.498,2.632c3.234,0,6.318-0.978,8.499-2.632
			c2.257-1.73,3.385-4.287,3.385-7.597v-36.854h8.8v36.854c0,3.084-0.677,5.941-1.881,8.499c-1.203,2.331-2.857,4.362-4.964,6.017
			c-3.685,2.858-8.573,4.438-13.839,4.438C654.839,270.098,649.951,268.519,646.266,265.66z"/>
		<path fill="#999999" d="M727.797,222.113h-15.344v47.984h-8.799v-47.984h-15.344v-7.822h39.486V222.113z"/>
		<path fill="#999999" d="M735.847,270.098v-55.807h8.725v55.807H735.847z"/>
		<path fill="#999999" d="M771.422,267.917c-3.384-1.43-6.317-3.46-8.874-6.018c-2.558-2.557-4.588-5.49-6.018-8.875
			c-1.429-3.384-2.181-7.069-2.181-10.83s0.752-7.445,2.181-10.905c1.43-3.31,3.46-6.242,6.018-8.875
			c2.557-2.557,5.49-4.513,8.874-5.941c3.385-1.429,7.07-2.182,10.831-2.182c3.76,0,7.445,0.753,10.905,2.182
			c3.31,1.429,6.242,3.385,8.875,5.941c2.557,2.633,4.513,5.565,5.941,8.875c1.429,3.46,2.181,7.145,2.181,10.905
			s-0.752,7.446-2.181,10.83c-1.429,3.385-3.385,6.318-5.941,8.875c-2.633,2.558-5.565,4.588-8.875,6.018
			c-3.46,1.429-7.146,2.181-10.905,2.181C778.493,270.098,774.807,269.346,771.422,267.917z M768.715,228.656
			c-3.61,3.61-5.641,8.424-5.641,13.538s2.03,9.928,5.641,13.538s8.424,5.641,13.538,5.641s9.928-2.03,13.537-5.641
			c3.61-3.61,5.642-8.424,5.642-13.538s-2.031-9.928-5.642-13.538c-3.609-3.609-8.423-5.641-13.537-5.641
			S772.326,225.047,768.715,228.656z"/>
		<path fill="#999999" d="M828.738,234.223v35.875h-8.725v-58.438l35.048,38.433v-35.801h8.8v58.364L828.738,234.223z"/>
		<path fill="#999999" d="M905.08,258.892c-1.579,5.415-6.468,9.702-12.56,10.905c-1.128,0.226-2.257,0.301-3.385,0.301
			c-2.256,0-4.513-0.376-6.618-1.203c-3.535-1.43-6.619-3.761-9.251-7.146l6.919-5.415c1.58,2.106,3.46,3.61,5.49,4.362
			c1.655,0.677,3.46,0.827,5.114,0.451c2.858-0.526,5.189-2.406,5.867-4.663c0.752-2.557-0.979-4.813-2.558-6.317
			c-2.481-2.332-6.543-6.317-6.844-6.619l-6.845-6.468c-2.105-2.03-3.535-4.287-4.287-6.693c-0.752-2.332-0.827-4.813-0.15-7.07
			c0.677-2.406,2.106-4.513,4.137-6.242c1.881-1.579,4.212-2.708,6.694-3.159c2.707-0.602,5.565-0.376,8.272,0.602
			c2.858,1.129,5.415,3.009,7.597,5.642l-6.845,5.49c-2.857-3.46-5.791-3.46-7.37-3.159c-1.956,0.376-3.61,1.654-4.062,3.234
			c-0.301,1.053-0.226,2.782,2.105,5.039l9.326,8.95c1.354,1.354,3.009,2.933,4.212,4.062c2.407,2.181,4.062,4.662,4.889,7.295
			C905.756,253.627,905.833,256.334,905.08,258.892z"/>
	</g>
</g>
<g id="potamic">
	<g>
		<path fill="#52B3EA" d="M23.043,27.24h26.49c21.279,0,33.655,8.685,40.169,15.851c8.686,9.554,13.028,22.365,13.028,37.347
			c0,14.982-4.342,28.01-13.028,37.347c-6.514,7.382-18.891,16.067-40.169,16.067H26.952v54.5H1.765V27.24H23.043z M80.149,80.438
			c0-6.297-1.303-15.416-7.166-21.93c-5.211-5.646-13.028-8.686-23.45-8.686H26.952v61.231h22.582
			c10.422,0,18.239-2.823,23.45-8.468C78.847,96.071,80.149,86.952,80.149,80.438z"/>
		<path fill="#52B3EA" d="M167.647,182.056c-9.771-4.125-18.239-9.988-25.622-17.37c-7.382-7.383-13.245-15.851-17.371-25.622
			s-6.297-20.411-6.297-31.267s2.171-21.496,6.297-31.484c4.125-9.554,9.988-18.022,17.371-25.622
			c7.382-7.382,15.851-13.028,25.622-17.153s20.411-6.297,31.267-6.297c10.857,0,21.496,2.171,31.484,6.297
			c9.554,4.125,18.022,9.771,25.622,17.153c7.382,7.6,13.028,16.068,17.153,25.622c4.125,9.988,6.297,20.628,6.297,31.484
			s-2.171,21.496-6.297,31.267s-9.771,18.239-17.153,25.622c-7.6,7.382-16.068,13.245-25.622,17.37
			c-9.988,4.126-20.627,6.297-31.484,6.297C188.058,188.353,177.418,186.182,167.647,182.056z M159.831,68.712
			c-10.422,10.422-16.285,24.319-16.285,39.084s5.862,28.662,16.285,39.084s24.319,16.285,39.084,16.285s28.662-5.862,39.084-16.285
			s16.285-24.319,16.285-39.084s-5.863-28.662-16.285-39.084s-24.319-16.285-39.084-16.285S170.253,58.29,159.831,68.712z"/>
		<path fill="#52B3EA" d="M397.806,49.822H353.51v138.531h-25.404V49.822h-44.295V27.24h113.995V49.822z"/>
		<path fill="#52B3EA" d="M486.177,153.829h-57.323l-13.679,34.524h-27.793l70.134-168.495l69.916,168.495h-27.575L486.177,153.829z
			 M477.058,131.247l-19.542-49.072l-19.542,49.072H477.058z"/>
		<path fill="#52B3EA" d="M675.945,188.353v-85.55l-50.375,75.128l-50.592-75.128v85.55h-25.188V19.857l75.779,112.909
			l75.779-112.909v168.495H675.945z"/>
		<path fill="#52B3EA" d="M734.999,188.353V27.24h25.188v161.112H734.999z"/>
		<path fill="#52B3EA" d="M911.958,175.107c-4.125,2.605-8.468,4.994-13.027,6.948c-9.988,4.126-20.628,6.297-31.484,6.297
			c-10.857,0-21.496-2.171-31.268-6.297c-9.771-4.125-18.239-9.988-25.621-17.37c-7.383-7.383-13.245-15.851-17.371-25.622
			c-4.125-9.771-6.297-20.411-6.297-31.267s2.172-21.496,6.297-31.484c4.126-9.554,9.988-18.239,17.371-25.622
			c7.382-7.382,15.851-13.245,25.621-17.153c9.771-4.343,20.41-6.297,31.268-6.297c10.856,0,21.496,1.954,31.484,6.297
			c1.085,0.434,2.388,1.085,3.474,1.52v29.747c-9.771-8.034-21.931-12.376-34.958-12.376c-14.766,0-28.662,5.646-39.084,16.285
			c-10.423,10.422-16.285,24.319-16.285,39.084s5.862,28.662,16.285,39.084c10.422,10.422,24.318,16.285,39.084,16.285
			c14.765,0,28.661-5.862,39.084-16.285c1.954-1.955,3.69-3.909,5.428-6.08V175.107z"/>
	</g>
</g>
</svg>
